<svg width="24" height="24" viewBox="0 0 24 24" fill="none" xmlns="http://www.w3.org/2000/svg">
<path d="M15.7463 8.29876C13.7827 5.40188 12.9147 2.93813 12.4175 1.46813C12.2601 1.00501 11.738 1.00501 11.5822 1.46813C11.085 2.93813 10.217 5.40188 8.25336 8.29876C7.02375 10.1138 5.81128 12.7706 5.81128 15.3881C5.81128 19.8544 8.49024 22.8788 11.9999 22.8788C15.5095 22.8788 18.1884 19.8525 18.1884 15.3881C18.1884 12.6675 16.976 10.1138 15.7463 8.29876Z" fill="#E5322E"/>
<path d="M13.7112 14.97C14.7008 12.705 14.5605 10.4888 15.3428 10.8881C16.4057 11.4338 17.5823 14.2369 17.1413 16.7775C16.8265 18.5888 15.8104 19.6856 14.5153 19.1625C13.4696 18.7406 12.8197 17.01 13.7112 14.97Z" fill="#FF6050"/>
<g clip-path="url(#clip0_32_20)">
<path d="M3.96609 18.2137C3.39848 17.3537 3.14756 16.6222 3.00385 16.1858C2.95835 16.0483 2.80744 16.0483 2.76239 16.1858C2.61869 16.6222 2.36776 17.3537 1.80015 18.2137C1.44472 18.7525 1.09424 19.5412 1.09424 20.3183C1.09424 21.6442 1.86863 22.5421 2.88312 22.5421C3.89762 22.5421 4.67201 21.6437 4.67201 20.3183C4.67201 19.5106 4.32153 18.7525 3.96609 18.2137Z" fill="#E5322E"/>
<path d="M3.37779 20.1942C3.66385 19.5218 3.62331 18.8638 3.84945 18.9824C4.15669 19.1444 4.4968 19.9765 4.36932 20.7308C4.27832 21.2685 3.9846 21.5941 3.61024 21.4388C3.30797 21.3136 3.12011 20.7998 3.37779 20.1942Z" fill="#FF6050"/>
</g>
<g clip-path="url(#clip1_32_20)">
<path d="M22.2 6.21366C21.6324 5.35365 21.3814 4.62223 21.2377 4.18582C21.1922 4.04833 21.0413 4.04833 20.9963 4.18582C20.8526 4.62223 20.6017 5.35365 20.034 6.21366C19.6786 6.75249 19.3281 7.54125 19.3281 8.31832C19.3281 9.64424 20.1025 10.5421 21.117 10.5421C22.1315 10.5421 22.9059 9.64368 22.9059 8.31832C22.9059 7.51063 22.5554 6.75249 22.2 6.21366Z" fill="#E5322E"/>
<path d="M21.6117 8.19419C21.8977 7.52177 21.8572 6.86382 22.0833 6.98238C22.3906 7.14436 22.7307 7.97654 22.6032 8.73079C22.5122 9.26851 22.2185 9.59414 21.8441 9.43884C21.5419 9.31359 21.354 8.79981 21.6117 8.19419Z" fill="#FF6050"/>
</g>
<defs>
<clipPath id="clip0_32_20">
<rect width="5.76623" height="7.125" fill="white" transform="translate(0 15.75)"/>
</clipPath>
<clipPath id="clip1_32_20">
<rect width="5.76623" height="7.125" fill="white" transform="translate(18.2339 3.75)"/>
</clipPath>
</defs>
</svg>
