<svg width="24" height="24" viewBox="0 0 24 24" fill="none" xmlns="http://www.w3.org/2000/svg">
<circle cx="12" cy="12" r="12" fill="#D9D9D9"/>
<g clip-path="url(#clip0_35_50)">
<path d="M12.5 16V14C12.5 12.6667 13.125 12.6667 14.375 12C15.625 11.3334 16.25 10.1054 16.25 8.66669C16.25 7.60582 15.8549 6.58841 15.1517 5.83826C14.4484 5.08811 13.4946 4.66669 12.5 4.66669C11.5054 4.66669 10.5516 5.08811 9.84835 5.83826C9.14509 6.58841 8.75 7.60582 8.75 8.66669M12.5 19.3334C12.6658 19.3334 12.8247 19.2631 12.9419 19.1381C13.0592 19.0131 13.125 18.8435 13.125 18.6667C13.125 18.4899 13.0592 18.3203 12.9419 18.1953C12.8247 18.0703 12.6658 18 12.5 18C12.3342 18 12.1753 18.0703 12.0581 18.1953C11.9408 18.3203 11.875 18.4899 11.875 18.6667C11.875 18.8435 11.9408 19.0131 12.0581 19.1381C12.1753 19.2631 12.3342 19.3334 12.5 19.3334Z" stroke="black" stroke-width="2"/>
</g>
<defs>
<clipPath id="clip0_35_50">
<rect width="15" height="16" fill="white" transform="translate(5 4)"/>
</clipPath>
</defs>
</svg>
