<svg width="348" height="280" viewBox="0 0 348 280" fill="none" xmlns="http://www.w3.org/2000/svg">
<path d="M305.656 202.367C305.656 207.211 303.898 211.391 300.383 214.906C295.383 219.75 288.352 222.172 279.289 222.172C271.477 222.172 264.562 220.18 258.547 216.195C258.547 217.758 258.469 218.891 258.312 219.594C257.922 220.688 256.789 221.234 254.914 221.234V196.859H258.664C258.742 197.641 258.82 198.461 258.898 199.32C260.695 212.367 267.258 218.891 278.586 218.891C281.477 218.891 284.133 218.383 286.555 217.367C291.711 215.023 294.289 211.117 294.289 205.648C294.289 203.617 293.82 201.742 292.883 200.023C291.008 196.742 286.594 193.539 279.641 190.414C272.062 186.977 267.609 184.867 266.281 184.086C259.016 179.945 255.383 174.594 255.383 168.031C255.383 163.578 256.984 159.75 260.188 156.547C264.953 151.859 271.594 149.516 280.109 149.516C287.062 149.516 293.43 151.039 299.211 154.086C299.211 153.305 299.289 152.641 299.445 152.094C299.68 150.766 300.812 150.102 302.844 150.102V170.727H299.094C299.172 166.273 298.039 162.523 295.695 159.477C292.336 155.023 287.414 152.797 280.93 152.797C278.43 152.797 276.125 153.227 274.016 154.086C269.172 156.039 266.75 159.516 266.75 164.516C266.75 166.391 267.18 168.188 268.039 169.906C269.836 173.109 274.172 176.234 281.047 179.281C288.703 182.719 293.156 184.828 294.406 185.609C301.906 189.906 305.656 195.492 305.656 202.367Z" fill="#ECF3FD"/>
<path d="M191.896 24C145.154 24 127.98 76.065 127.98 76.065C127.98 76.065 111.042 24 63.9796 24C28.6085 24 -11.7121 54.5554 3.17881 124.014C18.0697 193.473 128.108 280 128.108 280C128.108 280 237.742 193.473 252.654 124.014C267.545 54.5554 230.126 24 191.896 24Z" fill="#F44336"/>
<g clip-path="url(#clip0_5_69)">
<path d="M61.2998 22.4C95.6998 22.4 112.78 59.38 118.3 74.36C119.08 76.5 122.06 76.56 122.96 74.48L128 62.7C120.9 40.02 101.38 17.94 68.0598 17.94C54.2598 17.94 39.6798 22.5 28.3398 32.12C38.3598 25.54 50.0998 22.4 61.2998 22.4ZM187.98 17.94C177.4 17.94 167.76 20.24 160.24 24.88C165.52 22.84 172.06 22.4 178.54 22.4C210.96 22.4 239.98 46.98 226.88 103.8C215.64 152.58 149.96 211.76 129.9 234.34C128.62 235.78 128.18 238.1 128.18 238.1C128.18 238.1 230.96 163.68 244.94 103.94C258.9 44.22 223.88 17.94 187.98 17.94Z" fill="#CC3333"/>
<path d="M34.0802 49.64C41.5802 40.28 54.9802 32.54 66.3402 41.46C72.4802 46.28 69.8002 56.16 64.3002 60.32C56.3002 66.4 49.3402 70.06 44.4602 79.58C41.5402 85.3 39.7802 91.56 38.8802 97.94C38.5202 100.46 35.2202 101.08 33.9802 98.86C25.5402 83.9 23.1402 63.3 34.0802 49.64ZM154.32 69.32C150.8 69.32 148.32 65.92 149.6 62.64C151.98 56.6 155.06 50.76 158.76 45.56C164.24 37.88 174.66 33.4 181.26 38.06C188.02 42.82 187.14 52.34 182.4 56.94C172.22 66.8 159.38 69.32 154.32 69.32Z" fill="#FF8A80"/>
<path d="M20.9758 161.665H56.0927C59.6533 161.665 61.7897 160.534 62.4984 158.273L74.3649 119.345L95.1752 208.561C96.1236 212.628 104.905 212.572 106.012 208.561L126.185 141.041L130.849 157.82C131.561 160.424 133.616 161.665 137.336 161.665H168.028C171.194 161.665 173.725 159.912 173.725 157.712C173.725 155.45 171.271 153.698 168.028 153.698H140.026L130.93 124.938C129.742 121.04 121.595 121.04 120.251 125.107L100.396 188.446L79.6738 98.4393C78.8031 94.4857 70.6524 94.3724 69.3868 98.4393L52.6164 153.698H20.9758C17.8101 153.698 15.2788 155.506 15.2788 157.709C15.2788 159.912 17.8101 161.665 20.9758 161.665Z" fill="white"/>
<path d="M252.758 116.688V119.734H243.383V183.953H249.711C250.102 183.953 250.492 183.992 250.883 184.07C252.133 184.305 252.758 185.281 252.758 187H223.344V183.953H232.719V127.586L206.117 187.703H203.656L178.109 134.734V183.953H184.438C184.828 183.953 185.219 183.992 185.609 184.07C186.859 184.305 187.484 185.281 187.484 187H164.047V183.953H173.422V119.734H164.047V116.688H181.625L208.344 172.586L232.719 116.688H252.758Z" fill="#ECF3FD"/>
</g>
<defs>
<clipPath id="clip0_5_69">
<rect width="256" height="256" fill="white"/>
</clipPath>
</defs>
</svg>
